<?xml version="1.0" encoding="UTF-8" standalone="no"?>
<svg width="75px" height="157px" viewBox="0 0 75 157" version="1.1" xmlns="http://www.w3.org/2000/svg" xmlns:xlink="http://www.w3.org/1999/xlink" xmlns:sketch="http://www.bohemiancoding.com/sketch/ns">
    <!-- Generator: Sketch 3.4 (15588) - http://www.bohemiancoding.com/sketch -->
    <title>Cheminot train</title>
    <desc>Created with Sketch.</desc>
    <defs></defs>
    <g id="splashscreens" stroke="none" stroke-width="1" fill="none" fill-rule="evenodd" sketch:type="MSPage">
        <g id="screen-320x426.9" sketch:type="MSArtboardGroup" transform="translate(-123.000000, -135.000000)" fill="#FFFFFF">
            <g id="Rectangle-142-+-Cheminot-train" sketch:type="MSLayerGroup">
                <g id="Cheminot-train" transform="translate(123.500000, 135.916473)" sketch:type="MSShapeGroup">
                    <g id="train" transform="translate(0.000000, 0.000000)">
                        <path d="M49.3003878,5.10951276 L54.3943328,5.10951276 C55.8027206,5.10951276 56.9444444,3.97554627 56.9444444,2.55475638 C56.9444444,1.14380339 55.8038894,0 54.3943328,0 L19.2167783,0 C17.8083905,0 16.6666667,1.13396649 16.6666667,2.55475638 C16.6666667,3.96570937 17.8072218,5.10951276 19.2167783,5.10951276 L24.7736863,5.10951276 L32.0051514,17.6347777 L35.6135906,15.5514444 L29.5849385,5.10951276 L44.4891355,5.10951276 L38.4604835,15.5514444 L42.0689227,17.6347777 L49.3003878,5.10951276 Z" id="Rectangle-1"></path>
                        <path d="M18.4294358,13.9350348 C8.25113944,13.9350348 0,22.178442 0,32.3739987 L0,90.2543075 C0,100.437866 8.24590205,108.693271 18.4294358,108.693271 L55.6446383,108.693271 C65.8229346,108.693271 74.0740741,100.449864 74.0740741,90.2543075 L74.0740741,32.3739987 C74.0740741,22.1904402 65.828172,13.9350348 55.6446383,13.9350348 L18.4294358,13.9350348 Z M15.6795707,33.9085847 C9.32116938,33.9085847 4.16666667,39.056945 4.16666667,45.430559 L4.16666667,66.5142205 C4.16666667,72.8776313 9.33393206,78.0361949 15.6795707,78.0361949 L57.4685775,78.0361949 C63.8269788,78.0361949 68.9814815,72.8878346 68.9814815,66.5142205 L68.9814815,45.430559 C68.9814815,39.0671483 63.8142161,33.9085847 57.4685775,33.9085847 L15.6795707,33.9085847 Z M26.3695511,19.5090487 C23.8233572,19.5090487 21.7592593,21.570806 21.7592593,24.1132355 L21.7592593,24.1948852 C21.7592593,26.7377073 23.8184929,28.7990719 26.3695511,28.7990719 L48.1674859,28.7990719 C50.7136798,28.7990719 52.7777778,26.7373147 52.7777778,24.1948852 L52.7777778,24.1132355 C52.7777778,21.5704134 50.7185441,19.5090487 48.1674859,19.5090487 L26.3695511,19.5090487 Z M14.5833333,99.8677494 C18.546488,99.8677494 21.7592593,96.5403216 21.7592593,92.4357309 C21.7592593,88.3311401 18.546488,85.0037123 14.5833333,85.0037123 C10.6201787,85.0037123 7.40740741,88.3311401 7.40740741,92.4357309 C7.40740741,96.5403216 10.6201787,99.8677494 14.5833333,99.8677494 Z M59.4907407,99.8677494 C63.4538954,99.8677494 66.6666667,96.5403216 66.6666667,92.4357309 C66.6666667,88.3311401 63.4538954,85.0037123 59.4907407,85.0037123 C55.5275861,85.0037123 52.3148148,88.3311401 52.3148148,92.4357309 C52.3148148,96.5403216 55.5275861,99.8677494 59.4907407,99.8677494 Z" id="Rectangle-1"></path>
                    </g>
                    <g id="raille" transform="translate(0.925926, 111.944780)">
                        <path d="M18.5700953,1.31660384 C16.5022927,0.57271632 14.2150061,1.62891426 13.4652243,3.66502469 L1.07785009,37.3042294 C0.326310311,39.3451139 1.3975597,41.6041314 3.46115473,42.3465052 L3.46115473,42.3465052 C5.52895731,43.0903927 7.81624391,42.0341948 8.56602567,39.9980844 L20.9533999,6.35887969 C21.7049397,4.31799515 20.6336903,2.05897769 18.5700953,1.31660384 L18.5700953,1.31660384 L18.5700953,1.31660384 Z" id="Rectangle-7"></path>
                        <path d="M55.0236547,0.343470104 C52.9558521,1.12195704 51.8905683,3.48945718 52.6403501,5.62027042 L65.0277243,40.8240892 C65.7792641,42.9598987 68.0690003,44.0586419 70.1325953,43.281739 L70.1325953,43.281739 C72.2003979,42.503252 73.2656817,40.1357519 72.5158999,38.0049387 L60.1285257,2.80111984 C59.3769859,0.665310432 57.0872497,-0.433432769 55.0236547,0.343470104 L55.0236547,0.343470104 L55.0236547,0.343470104 Z" id="Rectangle-7"></path>
                    </g>
                    <path d="M18.4483833,140.27935 L15.9375,146.782367 L58.59375,146.782367 L56.0828667,140.27935 L18.4483833,140.27935 Z" id="Rectangle-9"></path>
                    <path d="M23.5347961,124.02181 L22.03125,128.20232 L52.5,128.20232 L50.9964539,124.02181 L23.5347961,124.02181 Z" id="Rectangle-9" opacity="0.553196023"></path>
                </g>
            </g>
        </g>
    </g>
</svg>