<?xml version="1.0" encoding="UTF-8" standalone="no"?>
<svg width="36px" height="31px" viewBox="0 0 36 31" version="1.1" xmlns="http://www.w3.org/2000/svg" xmlns:xlink="http://www.w3.org/1999/xlink" xmlns:sketch="http://www.bohemiancoding.com/sketch/ns">
    <title>chemino 5@2x</title>
    <description>Created with Sketch (http://www.bohemiancoding.com/sketch)</description>
    <defs></defs>
    <g id="Page-1" stroke="none" stroke-width="1" fill="none" fill-rule="evenodd" sketch:type="MSPage">
        <g id="details-produit-1-1" sketch:type="MSArtboardGroup" transform="translate(-574.000000, -71.000000)" fill="#FFFFFF">
            <g id="Group" sketch:type="MSLayerGroup">
                <path d="M609.982,81.4831682 C609.8875,75.9400321 605.40775,71 599.875,71 C596.6755,71 593.85625,72.6805596 592,75.1471874 C590.14375,72.6805596 587.3245,71 584.125,71 C578.59225,71 574.1125,75.9400321 574.018,81.4831682 L574,81.4831682 C574,81.5170504 574.00675,81.5486739 574.00675,81.5825561 C574.00675,81.6074031 574,81.6322501 574,81.6593559 C574,81.8152142 574.03825,81.9326727 574.045,82.0817546 C574.54,96.2083941 591.85825,102 591.85825,102 C591.85825,102 609.43075,96.2151705 609.9505,82.1043428 C609.9595,81.9462256 610,81.8219907 610,81.6593559 C610,81.6322501 609.99325,81.6074031 609.99325,81.5825561 C609.99325,81.546415 610,81.5170504 610,81.4831682 L609.982,81.4831682 L609.982,81.4831682 Z M607.70275,82.0207665 C607.3045,92.8630866 594.97225,98.3745992 591.86275,99.5921014 C588.78025,98.3723404 576.673,92.8856747 576.29275,81.977849 C576.28825,81.8649082 576.277,81.7610026 576.26125,81.6480618 C576.2635,81.6074031 576.26575,81.5644856 576.268,81.5215681 C576.3445,77.0423346 579.94225,73.2588167 584.125,73.2588167 C586.4335,73.2588167 588.64975,74.4424366 590.2045,76.5092539 C590.62975,77.073958 591.2935,77.4060041 592,77.4060041 C592.7065,77.4060041 593.37025,77.073958 593.7955,76.5092539 C595.35025,74.4424366 597.5665,73.2588167 599.875,73.2588167 C604.05775,73.2588167 607.6555,77.0423346 607.732,81.5215681 C607.732,81.5644856 607.73425,81.6074031 607.73875,81.6503206 C607.723,81.7610026 607.7095,81.8784611 607.70275,82.0207665 L607.70275,82.0207665 Z" id="Shape" sketch:type="MSShapeGroup"></path>
            </g>
        </g>
    </g>
</svg>